<svg width="512" height="512" viewBox="0 0 512 512" fill="none" xmlns="http://www.w3.org/2000/svg">
<rect width="512" height="512" rx="128" fill="#ED702D"/>
<path d="M107.401 241V86.8182H139.999V150.433H206.173V86.8182H238.696V241H206.173V177.31H139.999V241H107.401ZM394.534 86.8182V241H366.378L299.3 143.959H298.17V241H265.572V86.8182H294.18L360.732 183.784H362.087V86.8182H394.534Z" fill="white"/>
<path d="M206.443 294.636V411H185.193L134.568 337.761H133.716V411H109.114V294.636H130.705L180.932 367.818H181.955V294.636H206.443ZM266.088 412.705C257.111 412.705 249.384 410.886 242.906 407.25C236.467 403.576 231.505 398.386 228.02 391.682C224.535 384.939 222.793 376.966 222.793 367.761C222.793 358.784 224.535 350.905 228.02 344.125C231.505 337.345 236.41 332.061 242.736 328.273C249.099 324.485 256.562 322.591 265.122 322.591C270.88 322.591 276.24 323.519 281.202 325.375C286.202 327.193 290.558 329.939 294.27 333.614C298.02 337.288 300.937 341.909 303.02 347.477C305.103 353.008 306.145 359.485 306.145 366.909V373.557H232.452V358.557H283.361C283.361 355.072 282.603 351.985 281.088 349.295C279.573 346.606 277.471 344.504 274.781 342.989C272.13 341.436 269.043 340.659 265.52 340.659C261.846 340.659 258.588 341.511 255.747 343.216C252.944 344.883 250.747 347.136 249.156 349.977C247.565 352.78 246.751 355.905 246.713 359.352V373.614C246.713 377.932 247.509 381.663 249.099 384.807C250.728 387.951 253.02 390.375 255.974 392.08C258.929 393.784 262.433 394.636 266.486 394.636C269.175 394.636 271.637 394.258 273.872 393.5C276.107 392.742 278.02 391.606 279.611 390.091C281.202 388.576 282.414 386.72 283.247 384.523L305.634 386C304.497 391.379 302.168 396.076 298.645 400.091C295.16 404.068 290.652 407.174 285.122 409.409C279.63 411.606 273.285 412.705 266.088 412.705ZM361.372 412.705C352.546 412.705 344.914 410.83 338.474 407.08C332.073 403.292 327.13 398.027 323.645 391.284C320.16 384.504 318.418 376.644 318.418 367.705C318.418 358.689 320.16 350.811 323.645 344.068C327.13 337.288 332.073 332.023 338.474 328.273C344.914 324.485 352.546 322.591 361.372 322.591C370.198 322.591 377.812 324.485 384.213 328.273C390.652 332.023 395.615 337.288 399.099 344.068C402.584 350.811 404.327 358.689 404.327 367.705C404.327 376.644 402.584 384.504 399.099 391.284C395.615 398.027 390.652 403.292 384.213 407.08C377.812 410.83 370.198 412.705 361.372 412.705ZM361.486 393.955C365.501 393.955 368.853 392.818 371.543 390.545C374.232 388.235 376.259 385.091 377.622 381.114C379.024 377.136 379.724 372.61 379.724 367.534C379.724 362.458 379.024 357.932 377.622 353.955C376.259 349.977 374.232 346.833 371.543 344.523C368.853 342.212 365.501 341.057 361.486 341.057C357.433 341.057 354.024 342.212 351.259 344.523C348.531 346.833 346.467 349.977 345.065 353.955C343.702 357.932 343.02 362.458 343.02 367.534C343.02 372.61 343.702 377.136 345.065 381.114C346.467 385.091 348.531 388.235 351.259 390.545C354.024 392.818 357.433 393.955 361.486 393.955Z" fill="white"/>
</svg>
